<?xml version="1.0" encoding="UTF-8"?>
<svg width="23.157" height="26" version="1.0" viewBox="0 0 17.368 19.5" xmlns="http://www.w3.org/2000/svg" xmlns:cc="http://creativecommons.org/ns#" xmlns:dc="http://purl.org/dc/elements/1.1/" xmlns:rdf="http://www.w3.org/1999/02/22-rdf-syntax-ns#">
<metadata>Created by potrace 1.16, written by Peter Selinger 2001-2019
<rdf:RDF>
<cc:Work rdf:about="">
<dc:format>image/svg+xml</dc:format>
<dc:type rdf:resource="http://purl.org/dc/dcmitype/StillImage"/>
<dc:title/>
</cc:Work>
</rdf:RDF>
</metadata>
<g transform="matrix(.0033421 0 0 -.0033421 .62438 19.7)" fill="#b79d81">
<path d="m2335.3 5890c-324.57-8.0141-492.87-24.042-736.29-70.123-503.88-96.169-924.62-295.52-1181.1-558.98-274.48-282.5-389.68-606.06-373.66-1048.8 13.023-333.59 131.23-811.42 337.59-1362.4 294.52-784.38 795.4-1603.8 1355.4-2215.9 171.3-188.33 417.73-409.72 540.95-488.86 112.2-71.125 153.27-85.149 248.44-85.149 81.142 0 92.162 3.0053 167.29 40.07 237.42 119.21 611.07 480.84 954.68 926.63 621.09 805.41 1085.9 1785.1 1294.3 2729.8 79.139 357.63 88.155 636.12 27.048 891.57-105.18 445.78-413.73 778.37-921.62 994.75-305.54 129.23-727.28 220.39-1122 242.43-214.38 11.019-282.5 12.021-591.04 5.0088z" fill="#b79d81" stroke-width="1.0018"/>
</g>
<g transform="matrix(.03348 0 0 .03348 -.026521 -1.0692e-5)" fill="#fff" image-rendering="optimizeQuality" stroke-width="1.6116" aria-label="RI">
<path d="m461.3 353.51q-0.60435 6.0435-4.2304 9.3674-3.6261 3.6261-9.3674 3.6261-3.0217 0-5.7413-0.90652-5.7413 4.5326-13.598 6.95-7.8565 2.4174-14.806 4.8348-8.4608-0.30217-16.62-1.5109-8.1587-1.2087-16.922-0.60435-3.0217-2.1152-6.3456-2.7196-3.3239-0.60435-6.95-0.90652-3.3239 0-6.6478-0.90652-3.0217-0.90652-6.0435-4.2304h-15.109q-2.1152 0-6.3456-2.1152-3.9282-1.813-9.0652-3.9282-4.8348-2.1152-10.576-3.9282-5.4391-1.813-10.274-1.813h-1.813q-3.3239-2.7196-7.8565-4.2304-4.2304-1.2087-8.763-2.4174-4.5326-0.90652-8.763-2.1152t-7.2522-3.3239-6.95-4.2304q-3.9282-2.4174-8.1587-2.1152-5.7413-3.3239-12.087-5.7413-6.0435-2.4174-12.389-4.5326l-12.389-4.5326q-6.0434-2.4174-12.087-5.7413-0.90652 0.30218-2.1152 0-1.2087-0.30217-2.1152-0.30217-1.813 0-2.1152 1.2087-2.1152-2.1152-4.8348-3.6261-2.4174-1.5109-4.8348-3.6261-1.2087 0.30218-2.4174 0.60435-0.90652 0-2.4174 0-2.7196 0-5.4391-0.60435-2.4174-0.60434-4.8348-1.5109-2.7196 6.0435-3.6261 13.598-0.90651 7.5543-1.5109 15.713-0.30217 7.8565-0.90652 15.713-0.60434 8.1587-2.7196 14.806 0.60434 2.4174 0.60434 4.8348v5.1369q0 5.1369 1.5109 8.1587-0.60435 2.7196-1.2087 5.1369-0.30217 2.4174-0.90651 4.8348 0.30217 3.3239 0.30217 6.0434 0.30217 3.0217 0.30217 6.3456v5.1369q0 2.7196-0.60434 5.4391-3.0217 1.813-6.0435 3.3239-3.0217 1.813-6.0435 4.2304-2.1152-3.9282-7.2522-4.5326-1.2087 1.5109-1.813 3.9282-0.30218 2.7196-2.7196 2.7196-4.2304-3.3239-6.95-5.4391-2.7196-2.1152-6.0435-6.3456-0.30217-0.60434-0.30217-1.5109 0-1.5109 0.60434-2.7196 0.60435-1.2087 0.60435-2.4174 0-3.6261-0.90652-6.3456-0.60435-3.9282-0.90652-7.8565-0.30217-3.6261-0.30217-7.2522 0-5.1369 0.60434-9.9717 0.90652-4.8348 3.0217-9.9717 3.3239-8.763 4.5326-18.433 1.5109-9.6695 2.1152-19.339 0.60434-9.9717 0.60434-19.943 0.30217-9.9717 1.2087-19.037-2.1152-4.8348-5.1369-7.5543-2.7196-3.0217-2.7196-9.3674 0-5.7413 3.6261-8.763 3.6261-3.3239 6.3456-7.8565-0.60434-1.813 0.90652-2.4174l3.6261-31.728q0.30218-3.3239 0.90652-7.2521 0.90652-3.9282 1.2087-7.2522 0.60435-6.95 0.60435-13.598t0.60435-13.296q1.5109-14.806 2.7196-29.311 1.5109-14.504 1.5109-29.009 0-6.95-0.60435-13.9-0.30217-6.95-1.813-13.9-5.1369 1.5109-11.483 3.3239-6.0434 1.5109-10.274 5.4391h-2.4174q-7.8565 0-14.806 3.0217-6.6478 3.0217-13.598 5.7413-3.0217 1.5109-6.0435 2.1152-3.0217 0.30217-6.3456 1.2087-1.5109 0.30217-3.3239 1.813-1.813 1.5109-3.3239 2.1152l-5.1369 1.2087q-2.1152 0.60435-1.813 2.7196 0.30217 2.1152-1.5109 2.7196-1.5109 1.5109-4.2304 1.5109-2.7196-0.30217-4.2304-0.30217h-1.2087q-7.5543 5.4391-14.504 9.3674-7.2521 3.6261-16.922 4.8348l-6.6478 4.2304q-3.3239 2.1152-7.5543 2.1152-3.3239 0-5.4391-1.2087-2.4174-3.6261-3.6261-8.1587-1.5109-4.5326-4.8348-7.8565 1.5109-1.5109 2.1152-3.9282 0.30217-2.7196 0.90652-4.8348 9.0652-3.9282 18.433-7.5543 9.0652-3.6261 17.526-8.763 0.90652 0.30217 2.7196 0.30217 3.0217 0 5.4391-0.90652t4.8348-2.1152q2.4174-1.2087 4.8348-2.1152t5.7413-0.60434q10.274-5.7413 21.756-9.3674 11.483-3.6261 21.756-9.9717 1.5109 0 2.4174 0.60434 1.2087 0.60435 2.4174 0.60435t1.5109-0.30217q1.813-2.4174 4.8348-3.3239 3.0217-1.2087 6.0435-1.813 3.3239-0.90652 6.0435-2.1152 3.0217-1.5109 3.9282-4.5326 1.5109 1.2087 4.5326 1.2087 5.1369 0 9.3674-2.1152 4.5326-2.1152 9.6695-2.1152 1.2087 0 2.1152 0.60435 1.2087 0.30217 2.4174 0.30217 2.4174 0 2.4174-1.5109 0.30217-1.5109 1.813-2.7196 18.433-3.3239 36.563-6.0435 18.433-2.7196 37.167-2.7196 2.7196-1.813 6.0435-1.813 3.3239 0 6.0434 1.813 5.1369-0.60435 10.274-0.90652t10.274-0.30217q11.785 0 24.174 1.5109 12.389 1.5109 24.476 4.8348 12.389 3.0217 23.569 8.4608 11.18 5.1369 20.85 12.389 0.90652 2.7196 2.4174 5.4391 1.5109 2.7196 3.9282 4.2304 0 0.60434-0.30217 0.90652 0 0.30217 0 0.90652 0 3.3239 1.813 6.3456 2.1152 3.0217 2.1152 7.2522t-1.5109 8.4608q-1.2087 4.2304-0.90652 8.4608-3.3239 4.8348-5.7413 8.763-2.1152 3.9282-2.7196 9.9717-5.4391 5.4391-9.6695 12.087-4.2304 6.3456-8.763 12.691-4.2304 6.0435-9.6695 11.18-5.4391 5.1369-12.993 8.1587-0.30218 3.0217-2.4174 6.6478h-6.3456q-0.90652 2.4174-3.0217 3.6261l-4.2304 2.4174q-2.1152 1.2087-3.6261 3.0217-1.2087 1.813-1.2087 5.1369-0.60435-0.30218-1.5109-0.30218-3.0217 0-7.2522 3.0217-3.9282 3.0217-6.3456 4.8348-5.1369 3.6261-10.576 6.6478-5.1369 3.0217-9.0652 8.4608-12.087 5.1369-22.965 12.087-10.878 6.6478-23.569 10.576-4.8348 5.1369-11.483 8.1587-6.3456 2.7196-12.389 6.0435v0.90651q0 2.4174 1.813 4.8348 1.813 2.1152 4.2304 3.9282 2.4174 1.5109 5.1369 2.1152 3.0217 0.60434 5.1369 0 6.0435 5.4391 13.9 8.763 7.8565 3.3239 16.317 6.0435 8.4608 2.7196 16.62 5.7413 8.1587 3.0217 15.109 7.5543h7.2522q6.95 6.0435 16.317 9.0652 9.6695 3.0217 18.433 5.4391 3.6261 3.3239 9.0652 5.1369 5.7413 1.5109 10.878 1.5109h1.813q1.2087 0 2.1152-0.30217v0.60434q0 1.5109 0.90651 2.1152 0.90652 0.30217 1.813 0.60435 1.2087 0 2.1152 0.60434 1.2087 0.30218 1.813 1.2087h3.0217q6.3456 0 12.087 2.7196 5.7413 2.4174 12.087 2.4174 2.7196 0 4.2304-0.60434 1.813 0.60434 2.7196 2.4174t2.4174 3.0217q2.1152-0.30217 3.9282-0.60435 1.813 0 3.6261 0 6.6478 0 12.389 1.5109 5.7413 1.5109 11.785 4.5326 9.6695-4.2304 19.037-6.95 9.3674-2.7196 19.943-2.7196v0.60434q0 3.6261 1.813 6.6478 2.1152 3.3239 3.6261 6.6478zm-115.73-241.13q0-3.6261-1.5109-5.7413-1.2087-2.1152-3.3239-3.6261-2.1152-1.813-4.5326-3.3239-2.1152-1.5109-3.9282-3.9282-7.8565-2.4174-15.411-5.4391-7.5543-3.0217-15.411-5.1369-3.9282-0.90652-7.8565-1.5109-3.9282-0.90652-7.8565-0.90652h-6.6478q-1.813-0.30217-3.9282-0.60435-1.813-0.60435-3.6261-0.90652-4.2304-0.60435-8.4608-0.90652-3.9282-0.30217-8.1587-0.30217-7.8565 0-15.713 0.60435l-15.713 1.2087q-3.3239 0.30217-6.95 0.30217-3.6261 0-6.6478 0.60435-1.5109 0.30217-4.2304 1.5109-2.7196 0.90652-5.7413 2.1152-3.0217 0.90652-6.0435 2.1152-2.7196 1.2087-4.8348 1.813 0.30217 2.1152 0.30217 4.2304v3.9282q0 4.5326-0.30217 9.0652t-1.2087 9.0652q-0.30218 1.813-0.90652 3.6261-0.60435 1.813-0.90652 3.6261-0.60434 2.7196-0.60434 6.0435v5.7413q-0.60435 6.95-0.90652 13.598-0.30218 6.6478-0.90652 13.598-1.813 19.943-3.9282 39.585-1.813 19.641-2.4174 39.585 9.9717-2.1152 19.037-6.3456 9.0652-4.2304 17.828-9.0652 8.763-5.1369 17.526-9.9717 8.763-4.8348 18.433-8.1587 2.4174-3.3239 5.7413-5.4391 3.6261-2.1152 6.0434-5.4391 3.0217 0 4.5326-1.2087 1.5109-1.5109 3.9282-2.1152 14.504-12.691 29.613-23.872 15.109-11.18 29.009-23.872 1.2087-4.2304 3.9282-8.1587 3.0217-4.2304 5.7413-8.4608 2.7196-4.2304 4.8348-8.4608t2.1152-9.0652z"/>
<path d="m453.45 356.23q0 4.8348-3.3239 8.763-3.3239 3.9282-5.7413 7.5543-4.2304 2.1152-8.1587 2.4174-3.6261 0.60435-7.8565 2.1152-1.5109 0.30217-3.3239 2.1152-2.4174-0.30217-4.8348-2.1152-2.4174-1.5109-4.8348-2.1152-3.3239-1.2087-8.763-1.5109-5.1369-0.30218-7.5543-3.0217-4.2304-4.2304-7.2521-11.18-2.7196-6.95-4.5326-14.806-1.5109-7.8565-2.4174-15.411-0.60435-7.8565-0.60435-13.598 0-9.6695 1.2087-19.339 1.2087-9.6695 3.6261-18.735v-1.5109q0-1.5109 0-2.4174 0.30217-1.2087 0.30217-2.7196 0-0.90652-0.30217-1.813 0-0.90651-0.90652-1.5109 3.9282-9.9717 5.7413-20.548 1.813-10.576 2.7196-21.152 1.2087-10.878 2.4174-21.454 1.5109-10.878 4.2304-21.152-0.30217-1.813-0.60434-3.9282 0-2.1152 0-3.9282 0-5.4391 1.2087-10.576 1.2087-5.4391 1.5109-11.18 0.30218-1.813 0-3.6261-0.30217-2.1152-0.30217-4.2304 0-13.296 1.2087-25.987 1.5109-12.691 1.5109-25.685 0-6.95-1.2087-13.296-0.90651-6.6478-0.90651-13.296 0-3.0217 0.30217-5.7413 0.30217-3.0217 1.813-5.4391 6.6478-4.5326 15.713-4.5326 6.6478 0 11.483 3.6261-0.30217 0.60435-0.30217 1.813 0 1.5109 0.30217 2.7196t0.30217 2.7196v1.2087q0 0.60435-0.30217 1.2087 2.1152 3.6261 2.7196 7.8565 0.90652 3.9282 0.90652 8.1587 0 3.9282-0.30218 7.8565-0.30217 3.6261-0.30217 7.5543 0 5.4391 0 10.878 0.30217 5.4391 0.30217 10.878 0 14.504-1.5109 28.706-1.2087 13.9-1.813 28.404-0.60434 12.389-3.3239 24.174-2.4174 11.785-3.3239 23.872-0.30217 2.4174-0.30217 4.8348 0.30217 2.1152 0.30217 4.8348 0 6.95-2.7196 13.9-2.7196 6.6478-2.7196 14.202 0 3.6261 1.2087 6.3456-1.813 4.8348-3.3239 11.483-1.2087 6.6478-2.4174 13.9-0.90651 6.95-1.5109 13.9-0.60434 6.6478-0.60434 11.785 0 7.2522 1.813 14.806 1.813 7.2522 6.0435 13.296 3.0217 0.90652 7.2522 0.90652t8.4608 0.30218q4.2304 0.30217 7.8565 1.5109t5.4391 4.8348q0.30217 0.60435 0.30217 1.2087z"/>
</g>
</svg>
